# xmcd
#
# Track frame offsets:
# 150
# 14792
# 28740
# 45300
# 60302
# 76427
# 90865
# 111810
# 125952
# 136040
# 151135
# 166737
# 181462
# 194875
#
# Disc length: 2806 seconds
#
#
# Revision: 0
# Processed by: cddbd v1.5.1PL2 Copyright (c) Steve Scherf et al.
# Submitted via: FreeRIP 2.945 
#
DISCID=b20af40e
DTITLE=Beth Guzzo - 
DYEAR=1900
DGENRE=
TTITLE0=É amor é paixão
TTITLE1=De São Paulo à Belém
TTITLE2=Volta pra ela
TTITLE3=A saudade (it's a heartache)
TTITLE4=Joga chave fora
TTITLE5=Tal de mal comigo
TTITLE6=Tem amor que não dá pra esquecer
TTITLE7=Chora sanfona
TTITLE8=Caminhoneiro
TTITLE9=Quantas vezes fui te procurar
TTITLE10=Festa de Barretos
TTITLE11=Coração machucado
TTITLE12=Comitiva rodante
TTITLE13=Tchau, tchau
EXTD=
EXTT0=
EXTT1=
EXTT2=
EXTT3=
EXTT4=
EXTT5=
EXTT6=
EXTT7=
EXTT8=
EXTT9=
EXTT10=
EXTT11=
EXTT12=
EXTT13=
PLAYORDER=
